<?xml version="1.0" encoding="iso-8859-1"?>
<!-- Generator: Adobe Illustrator 19.0.0, SVG Export Plug-In . SVG Version: 6.00 Build 0)  -->
<svg version="1.1" id="Capa_1" xmlns="http://www.w3.org/2000/svg" xmlns:xlink="http://www.w3.org/1999/xlink" x="0px" y="0px"
	 viewBox="0 0 480 480" style="enable-background:new 0 0 480 480;" xml:space="preserve">
<circle style="fill:#DFDEED;" cx="344" cy="344" r="128"/>
<path style="fill:#92B1F9;" d="M264,304h32v72h-32V304z"/>
<path style="fill:#F73445;" d="M328,344h32v56h-32V344z"/>
<path style="fill:#92B1F9;" d="M392,288h32v48h-32V288z"/>
<g>
	<path style="fill:#FED966;" d="M336,128h64l24,40H312L336,128z"/>
	<path style="fill:#FED966;" d="M192,128h64l24,40H168L192,128z"/>
	<path style="fill:#FED966;" d="M264,56h64l24,40H240L264,56z"/>
	<path style="fill:#FED966;" d="M72,240c-35.346,0-64,14.327-64,32v165c0,19.33,28.654,35,64,35s64-15.67,64-35V272
		C136,254.327,107.346,240,72,240z"/>
</g>
<path d="M296,296h-8v-24h-16v24h-8c-4.417-0.001-7.999,3.579-8,7.996c0,0.001,0,0.003,0,0.004v72c-0.001,4.417,3.579,7.999,7.996,8
	c0.001,0,0.003,0,0.004,0h8v24h16v-24h8c4.417,0.001,7.999-3.579,8-7.996c0-0.001,0-0.003,0-0.004v-72
	c0.001-4.417-3.579-7.999-7.996-8C296.003,296,296.001,296,296,296z M288,368h-16v-56h16V368z"/>
<path d="M360,336h-8v-24h-16v24h-8c-4.417-0.001-7.999,3.579-8,7.996c0,0.001,0,0.003,0,0.004v56c-0.001,4.417,3.579,7.999,7.996,8
	c0.001,0,0.003,0,0.004,0h8v32h16v-32h8c4.417,0.001,7.999-3.579,8-7.996c0-0.001,0-0.003,0-0.004v-56
	c0.001-4.417-3.579-7.999-7.996-8C360.003,336,360.001,336,360,336z M352,392h-16v-40h16V392z"/>
<path d="M416,280v-16h-16v16h-8c-4.417-0.001-7.999,3.579-8,7.996c0,0.001,0,0.003,0,0.004v48c-0.001,4.417,3.579,7.999,7.996,8
	c0.001,0,0.003,0,0.004,0h8v32h16v-32h8c4.417,0.001,7.999-3.579,8-7.996c0-0.001,0-0.003,0-0.004v-48
	c0.001-4.417-3.579-7.999-7.996-8c-0.001,0-0.003,0-0.004,0H416z M416,328h-16v-32h16V328z"/>
<path d="M344,208c-75.111,0-136,60.889-136,136s60.889,136,136,136s136-60.889,136-136C479.916,268.924,419.076,208.084,344,208z
	 M344,464c-66.274,0-120-53.726-120-120s53.726-120,120-120s120,53.726,120,120C463.926,410.244,410.244,463.926,344,464z"/>
<path d="M400,120h-64c-2.809,0.001-5.412,1.475-6.859,3.883l-24,40c-2.274,3.787-1.048,8.701,2.739,10.976
	c1.244,0.747,2.669,1.142,4.12,1.142h112c4.418,0.001,8-3.579,8.001-7.997c0-1.452-0.394-2.876-1.142-4.12l-24-40
	C405.412,121.475,402.809,120.001,400,120z M409.871,160h-83.742l14.402-24h54.937L409.871,160z"/>
<path d="M286.961,171.945c1.422-2.509,1.383-5.59-0.102-8.062l-24-40c-1.447-2.408-4.05-3.882-6.859-3.883h-64
	c-2.809,0.001-5.412,1.475-6.859,3.883l-24,40c-2.274,3.787-1.048,8.701,2.739,10.976c1.244,0.747,2.669,1.142,4.12,1.142h112
	C282.882,176.002,285.541,174.453,286.961,171.945z M182.129,160l14.402-24h54.937l14.402,24H182.129z"/>
<path d="M334.859,51.883c-1.447-2.408-4.05-3.882-6.859-3.883h-64c-2.809,0.001-5.412,1.475-6.859,3.883l-24,40
	c-2.274,3.787-1.048,8.701,2.739,10.976c1.244,0.747,2.669,1.142,4.12,1.142h112c4.418,0.001,8-3.579,8.001-7.997
	c0-1.452-0.394-2.876-1.142-4.12L334.859,51.883z M254.129,88l14.402-24h54.937l14.402,24H254.129z"/>
<path d="M112,144h24v16h-24V144z"/>
<path d="M456,144h24v16h-24V144z"/>
<path d="M157.896,35.189l11.313-11.313l16.969,16.969l-11.313,11.313L157.896,35.189z"/>
<path d="M405.824,44.81l16.969-16.969l11.313,11.313l-16.969,16.969L405.824,44.81z"/>
<path d="M288,0h16v24h-16V0z"/>
<path d="M72,232c-41.047,0-72,17.195-72,40v165c0,24.109,31.625,43,72,43s72-18.891,72-43V272C144,249.195,113.047,232,72,232z
	 M128,437c0,12.773-23,27-56,27s-56-14.227-56-27v-12.694C32.601,435.188,52.161,440.67,72,440c19.839,0.67,39.399-4.812,56-15.694
	V437z M128,397c0,12.773-23,27-56,27s-56-14.227-56-27v-12.672C32.605,395.199,52.164,400.673,72,400
	c19.836,0.673,39.395-4.801,56-15.672V397z M128,357c0,12.773-23,27-56,27s-56-14.227-56-27v-12.694
	C32.601,355.188,52.161,360.67,72,360c19.839,0.67,39.399-4.812,56-15.694V357z M128,317c0,12.773-23,27-56,27s-56-14.227-56-27
	v-12.672C32.605,315.199,52.164,320.673,72,320c19.836,0.673,39.395-4.801,56-15.672V317z M128,277c0,12.773-23,27-56,27
	s-56-14.227-56-27v-5c0-11.328,23.949-24,56-24s56,12.672,56,24V277z"/>
<g>
</g>
<g>
</g>
<g>
</g>
<g>
</g>
<g>
</g>
<g>
</g>
<g>
</g>
<g>
</g>
<g>
</g>
<g>
</g>
<g>
</g>
<g>
</g>
<g>
</g>
<g>
</g>
<g>
</g>
</svg>
