<?xml version="1.0" standalone="no"?>
<!DOCTYPE svg PUBLIC "-//W3C//DTD SVG 20010904//EN"
 "http://www.w3.org/TR/2001/REC-SVG-20010904/DTD/svg10.dtd">
<svg version="1.0" xmlns="http://www.w3.org/2000/svg"
 width="700.000000pt" height="700.000000pt" viewBox="0 0 700.000000 700.000000"
 preserveAspectRatio="xMidYMid meet">
<metadata>
Created by potrace 1.14, written by Peter Selinger 2001-2017
</metadata>
<g transform="translate(0.000000,700.000000) scale(0.100000,-0.100000)"
fill="#000000" stroke="none">
<path d="M4200 6825 l0 -175 115 0 115 0 0 175 0 175 -115 0 -115 0 0 -175z"/>
<path d="M2385 6570 l-80 -80 123 -123 122 -122 80 80 80 80 -123 123 -122
122 -80 -80z"/>
<path d="M6042 6467 l-122 -122 78 -78 c42 -42 82 -77 87 -77 6 0 63 53 128
118 l117 117 -83 83 -82 82 -123 -123z"/>
<path d="M3810 6293 c-33 -12 -59 -50 -237 -347 -157 -261 -186 -315 -186
-348 0 -49 28 -89 74 -105 49 -17 1659 -17 1709 0 39 13 80 67 80 104 0 33 -8
47 -208 380 -145 242 -181 295 -207 308 -29 13 -101 15 -522 14 -268 0 -495
-3 -503 -6z m1008 -394 c56 -95 101 -173 99 -175 -2 -2 -275 -3 -605 -2 l-602
3 96 160 c53 88 101 166 106 173 8 9 102 12 407 12 l396 0 103 -171z"/>
<path d="M2760 5243 c-33 -12 -59 -50 -237 -347 -157 -261 -186 -315 -186
-348 0 -49 28 -89 74 -105 44 -15 1645 -18 1700 -3 73 20 107 95 74 161 -10
19 -96 165 -193 326 -145 242 -181 295 -207 308 -29 13 -101 15 -522 14 -268
0 -495 -3 -503 -6z m1008 -394 c56 -95 101 -173 99 -175 -2 -2 -275 -3 -605
-2 l-602 3 96 160 c53 88 101 166 106 173 8 9 102 12 407 12 l396 0 103 -171z"/>
<path d="M4860 5243 c-33 -12 -59 -50 -237 -347 -157 -261 -186 -315 -186
-348 0 -49 28 -89 74 -105 49 -17 1659 -17 1709 0 39 13 80 67 80 104 0 33 -8
47 -208 380 -145 242 -181 295 -207 308 -29 13 -101 15 -522 14 -268 0 -495
-3 -503 -6z m1008 -394 c56 -95 101 -173 99 -175 -2 -2 -275 -3 -605 -2 l-602
3 96 160 c53 88 101 166 106 173 8 9 102 12 407 12 l396 0 103 -171z"/>
<path d="M1630 4785 l0 -115 175 0 175 0 0 115 0 115 -175 0 -175 0 0 -115z"/>
<path d="M6650 4785 l0 -115 175 0 175 0 0 115 0 115 -175 0 -175 0 0 -115z"/>
<path d="M4870 3959 c-244 -16 -496 -85 -725 -198 -215 -106 -345 -199 -514
-364 -317 -312 -510 -690 -576 -1132 -33 -221 -18 -532 36 -750 159 -641 620
-1160 1234 -1390 659 -247 1423 -114 1965 340 529 445 789 1135 685 1820 -39
255 -134 515 -271 736 -391 632 -1088 989 -1834 938z m484 -258 c957 -194
1570 -1117 1376 -2071 -11 -54 -34 -140 -51 -191 -42 -131 -156 -356 -236
-469 -87 -122 -291 -326 -413 -413 -113 -80 -339 -194 -468 -236 -357 -117
-741 -116 -1100 4 -600 201 -1037 699 -1164 1327 -20 98 -23 142 -23 338 1
196 4 239 24 330 76 351 240 658 479 898 267 267 600 435 981 497 133 22 455
14 595 -14z"/>
<path d="M5830 3036 l0 -114 -74 -4 c-81 -4 -119 -22 -143 -69 -10 -18 -13
-121 -13 -399 0 -278 3 -381 13 -399 24 -47 62 -65 143 -69 l74 -4 0 -229 0
-229 120 0 120 0 0 229 0 229 74 4 c81 4 119 22 143 69 10 18 13 121 13 399 0
278 -3 381 -13 399 -24 47 -62 65 -143 69 l-74 4 0 114 0 114 -120 0 -120 0 0
-114z m240 -586 l0 -230 -120 0 -120 0 0 230 0 230 120 0 120 0 0 -230z"/>
<path d="M3968 2858 l-3 -173 -80 -5 c-82 -5 -111 -17 -136 -54 -22 -32 -26
-1100 -5 -1150 23 -54 67 -76 154 -76 l72 0 0 -175 0 -175 115 0 115 0 0 175
0 175 70 0 c44 0 82 6 100 15 61 32 60 20 60 636 l0 561 -34 34 c-33 33 -36
34 -115 34 l-81 0 0 175 0 175 -115 0 -115 0 -2 -172z m232 -818 l0 -410 -115
0 -115 0 0 410 0 410 115 0 115 0 0 -410z"/>
<path d="M4900 2275 l0 -175 -72 0 c-83 0 -132 -22 -148 -66 -6 -15 -10 -202
-10 -460 0 -477 0 -478 60 -509 18 -9 56 -15 100 -15 l70 0 0 -235 0 -235 115
0 115 0 0 234 0 234 84 3 c93 4 117 17 142 76 20 47 20 849 0 896 -25 59 -49
72 -142 76 l-84 3 0 174 0 174 -115 0 -115 0 0 -175z"/>
<path d="M910 3610 c-455 -30 -813 -217 -890 -467 -20 -64 -20 -90 -20 -1312
0 -804 4 -1262 11 -1290 20 -87 60 -154 143 -237 113 -113 241 -184 431 -239
376 -109 837 -74 1150 86 189 96 320 240 354 390 7 28 11 485 11 1284 0 1085
-2 1248 -15 1300 -35 132 -136 242 -306 334 -213 115 -543 172 -869 151z m385
-245 c252 -38 463 -134 541 -246 26 -38 29 -50 29 -123 0 -100 -20 -141 -101
-215 -65 -60 -202 -130 -314 -161 -171 -47 -427 -64 -606 -39 -276 38 -517
159 -586 292 -25 50 -34 138 -19 194 34 125 275 253 556 297 122 19 376 19
500 1z m-1027 -824 c47 -33 184 -98 274 -130 161 -56 288 -75 508 -75 296 0
475 42 708 165 l114 59 -4 -112 c-4 -128 -16 -162 -80 -229 -262 -270 -974
-316 -1359 -89 -81 48 -148 111 -174 165 -15 31 -21 66 -23 153 -2 61 -1 112
3 112 4 0 19 -8 33 -19z m39 -606 c205 -122 459 -185 744 -185 280 0 518 58
723 175 44 25 84 45 89 45 5 0 8 -47 6 -112 -4 -101 -7 -118 -31 -159 -69
-118 -255 -221 -488 -270 -139 -30 -426 -33 -569 -6 -242 45 -440 149 -516
271 -28 46 -30 57 -34 163 -2 74 0 113 7 113 6 0 37 -16 69 -35z m11 -589
c145 -83 329 -144 500 -167 114 -15 474 -6 562 15 157 36 293 88 412 157 36
22 70 39 73 39 4 0 5 -51 3 -112 -5 -135 -19 -170 -104 -247 -65 -60 -202
-130 -314 -161 -171 -47 -427 -64 -606 -39 -210 29 -405 106 -508 200 -85 77
-99 112 -104 247 -2 61 -1 112 2 112 4 0 42 -20 84 -44z m-50 -555 c47 -33
184 -98 274 -130 161 -56 288 -75 508 -75 296 0 475 42 708 165 l114 59 -4
-112 c-4 -128 -16 -162 -80 -229 -193 -198 -649 -286 -1054 -203 -222 46 -421
162 -479 279 -15 31 -21 66 -23 153 -2 61 -1 112 3 112 4 0 19 -8 33 -19z"/>
</g>
</svg>
